<svg xmlns="http://www.w3.org/2000/svg" width="256" height="256" viewBox="0 0 100 100"><rect width="100" height="100" rx="50" fill="#000000"></rect><path fill="#fff" d="M74.60 13.39Q79.52 13.83 81.64 16.43Q83.75 19.02 83.75 23.56Q83.75 28.09 80.84 47.98Q77.94 67.86 77.94 75.83Q77.94 83.79 79.17 86.70L79.17 86.70Q73.36 84.76 71.12 81.50Q68.88 78.25 68.88 73.76Q68.88 69.27 70.86 54.84Q72.84 40.41 73.45 32.84L73.45 32.84Q69.84 39.79 61.44 52.55Q53.04 65.31 51.72 67.42L51.72 67.42Q49.60 68.66 47.32 68.66L47.32 68.66Q43.18 68.66 42.65 67.16L42.65 67.16Q41.68 64.70 39.62 59.28Q37.55 53.87 36.23 50.44L36.23 50.44Q32.36 40.76 29.28 34.16L29.28 34.16Q29.19 34.78 27.12 51.10Q25.05 67.42 25.05 77.10L25.05 77.10Q25.05 79.83 25.40 84.41L25.40 84.41Q16.25 84.41 16.25 78.86L16.25 78.86Q16.25 78.07 19.64 54.97Q23.03 31.87 23.03 22.81L23.03 22.81L23.03 22.37Q20.48 18.23 17.66 15.59L17.66 15.59Q19.77 13.30 22.85 13.30L22.85 13.30Q28.84 13.30 32.49 20.04Q36.14 26.77 48.72 59.94L48.72 59.94Q48.99 60.47 49.08 60.74L49.08 60.74Q49.87 59.50 53.39 54.40Q56.91 49.30 58.71 46.52Q60.52 43.75 63.68 38.60Q66.85 33.46 68.61 29.76L68.61 29.76Q73.54 19.73 74.60 13.39L74.60 13.39Z"></path></svg>